HIERARCHY
ROOT hip
{
	OFFSET 0.000000 0.000000 0.000000 
	CHANNELS 6 Xposition Yposition Zposition Xrotation Zrotation Yrotation
	JOINT abdomen
	{
		OFFSET 0.000000 3.402643 0.000000 
		CHANNELS 3 Xrotation Zrotation Yrotation
		JOINT chest
		{
			OFFSET 0.000000 8.438565 -0.680529 
			CHANNELS 3 Xrotation Zrotation Yrotation
			JOINT neck
			{
				OFFSET 0.000000 10.207942 -0.272212 
				CHANNELS 3 Xrotation Zrotation Yrotation
				JOINT head
				{
					OFFSET 0.000000 3.130431 0.000000 
					CHANNELS 3 Xrotation Zrotation Yrotation
					End Site
					{
						OFFSET 0.000000 3.130435 0.000000 
					}
				}
			}
			JOINT lCollar
			{
				OFFSET 3.470700 6.669187 -0.816635 
				CHANNELS 3 Yrotation Zrotation Xrotation
				JOINT lShldr
				{
					OFFSET 3.198488 0.000000 0.000000 
					CHANNELS 3 Zrotation Yrotation Xrotation
					JOINT lForeArm
					{
						OFFSET 10.139888 0.000000 0.000000 
						CHANNELS 3 Yrotation Zrotation Xrotation
						JOINT lHand
						{
							OFFSET 8.370511 0.000000 0.000000 
							CHANNELS 3 Zrotation Yrotation Xrotation
							End Site
							{
								OFFSET 4.083176 0.000000 0.000000 
							}
						}
					}
				}
			}
			JOINT rCollar
			{
				OFFSET -3.470700 6.669187 -0.816635 
				CHANNELS 3 Yrotation Zrotation Xrotation
				JOINT rShldr
				{
					OFFSET -3.198488 0.000000 0.000000 
					CHANNELS 3 Zrotation Yrotation Xrotation
					JOINT rForeArm
					{
						OFFSET -10.139888 0.000000 0.000000 
						CHANNELS 3 Yrotation Zrotation Xrotation
						JOINT rHand
						{
							OFFSET -8.370511 0.000000 0.000000 
							CHANNELS 3 Zrotation Yrotation Xrotation
							End Site
							{
								OFFSET -4.083176 0.000000 0.000000 
							}
						}
					}
				}
			}
		}
	}
	JOINT lThigh
	{
		OFFSET 5.308129 -1.633274 1.361059 
		CHANNELS 3 Xrotation Zrotation Yrotation
		JOINT lShin
		{
			OFFSET -2.041588 -20.007561 0.000000 
			CHANNELS 3 Xrotation Zrotation Yrotation
			JOINT lFoot
			{
				OFFSET 0.000000 -19.190928 -1.224953 
				CHANNELS 3 Xrotation Yrotation Zrotation
				End Site
				{
					OFFSET 0.000000 -2.449906 4.627600 
				}
			}
		}
	}
	JOINT rThigh
	{
		OFFSET -5.308129 -1.633274 1.361059 
		CHANNELS 3 Xrotation Zrotation Yrotation
		JOINT rShin
		{
			OFFSET 2.041588 -20.007561 0.000000 
			CHANNELS 3 Xrotation Zrotation Yrotation
			JOINT rFoot
			{
				OFFSET 0.000000 -19.190928 -1.224953 
				CHANNELS 3 Xrotation Yrotation Zrotation
				End Site
				{
					OFFSET 0.000000 -2.449906 4.627600 
				}
			}
		}
	}
}
MOTION
Frames: 9
Frame Time: 0.016667
36.288883 37.103107 95.653931 4.815384 4.026502 -15.585699 42.820896 -2.675781 0.029265 -17.279118 -6.713831 2.202176 -34.238590 -4.021458 8.164750 -6.090734 -15.788672 11.644533 0.750993 -5.615363 -0.009718 -77.476036 -35.764462 33.275726 -103.443375 0.362448 4.545630 -21.019352 36.763042 -12.949295 13.788325 -4.445687 -0.009456 97.109535 72.139511 4.140680 136.975403 1.834514 -20.141758 47.179749 -9.655349 -10.274140 -61.820419 12.741638 10.541680 61.206192 0.551396 -3.893849 -2.673717 -13.192796 -12.946267 -73.217957 -0.147577 7.249335 71.250351 -1.305169 4.096964 24.849894 23.835520 1.977066 
36.311619 37.090534 95.654312 4.856653 3.893327 -15.661620 42.768177 -2.568354 0.117070 -17.312857 -6.518578 2.220472 -34.275444 -3.729985 8.318015 -6.097061 -16.077200 11.978029 0.790067 -5.547010 -0.009719 -77.535385 -35.760246 33.374798 -103.428246 0.368611 4.747047 -21.173733 36.734489 -13.042782 13.788342 -4.357797 -0.009457 96.953049 72.064369 3.989516 136.999054 1.826411 -20.126434 47.089577 -9.657713 -10.243648 -61.947842 12.654228 10.107546 61.302551 0.570793 -3.916001 -2.792772 -12.769445 -12.938602 -73.194107 -0.167734 7.207711 71.133438 -1.285486 4.105961 24.961586 24.297668 1.713407 
36.343479 37.076118 95.652756 4.916540 3.742341 -15.688261 42.716248 -2.451158 0.195134 -17.342018 -6.264863 2.219421 -34.312134 -3.390591 8.452078 -6.083394 -16.363337 12.330523 0.819379 -5.459124 -0.009720 -77.637329 -35.731102 33.462673 -103.399155 0.391377 4.895957 -21.268890 36.733688 -13.108310 13.768828 -4.240606 -0.009459 96.783844 72.037193 3.869536 136.972610 1.824260 -20.033369 46.978836 -9.546765 -10.091857 -62.128117 12.529191 9.587747 61.411377 0.562377 -3.886895 -2.814682 -12.385015 -12.922896 -73.179359 -0.274262 7.090699 70.987419 -1.285585 4.090571 25.187559 24.913023 1.363358 
36.375416 37.061699 95.651176 4.983682 3.600796 -15.715007 42.664238 -2.333956 0.283366 -17.372217 -6.011106 2.228124 -34.345776 -3.041759 8.586404 -6.073523 -16.648138 12.686022 0.838927 -5.361471 -0.009722 -77.729103 -35.707199 33.539146 -103.377693 0.403995 5.045801 -21.348045 36.747665 -13.169415 13.749317 -4.123414 -0.009461 96.643219 71.999596 3.777122 136.945831 1.815373 -19.933571 46.867207 -9.428651 -9.933432 -62.289448 12.390590 9.082925 61.509186 0.580730 -3.871046 -2.853709 -11.998885 -12.928279 -73.154999 -0.392103 6.980616 70.840874 -1.265414 4.108279 25.390900 25.488895 1.028482 
36.417561 37.046871 95.647774 5.064265 3.460283 -15.683376 42.593620 -2.187456 0.361438 -17.398851 -5.718398 2.217449 -34.379238 -2.645032 8.700552 -6.029926 -16.923372 13.023143 0.858479 -5.244287 -0.009724 -77.868973 -35.658916 33.583637 -103.342255 0.407307 5.114446 -21.407627 36.822811 -13.230148 13.729810 -3.976927 -0.009464 96.463715 72.030426 3.660231 136.838242 1.798988 -19.732859 46.794113 -9.124626 -9.597479 -62.500854 12.223146 8.638842 61.634884 0.590230 -3.900031 -2.805410 -11.590324 -12.890663 -73.160492 -0.547407 6.902951 70.675697 -1.265558 4.082467 25.602816 26.100996 0.650959 
36.459774 37.032051 95.644363 5.146766 3.310165 -15.661017 42.532745 -2.050718 0.449281 -17.425219 -5.415925 2.206808 -34.420887 -2.248539 8.815167 -5.989808 -17.197342 13.360563 0.868266 -5.117336 -0.009726 -77.997345 -35.625580 33.620754 -103.306488 0.410703 5.182782 -21.479252 36.895657 -13.296851 13.700537 -3.830438 -0.009467 96.311966 72.050911 3.580114 136.729965 1.775278 -19.525566 46.723969 -8.826772 -9.270595 -62.706108 12.047859 8.153938 61.752396 0.581707 -3.900340 -2.767166 -11.205217 -12.843665 -73.145760 -0.704640 6.817592 70.520454 -1.246590 4.070040 25.829515 26.720112 0.286279 
36.513134 37.017910 95.639473 5.235271 3.179280 -15.610084 42.462933 -1.904216 0.527377 -17.459963 -5.074414 2.195334 -34.453327 -1.813939 8.881433 -5.943425 -17.444401 13.655231 0.868290 -4.980617 -0.009728 -78.165588 -35.575455 33.635384 -103.267899 0.410306 5.201366 -21.519320 37.015102 -13.350238 13.671267 -3.664418 -0.009470 96.239624 72.118721 3.566638 136.561218 1.752188 -19.231598 46.709312 -8.362288 -8.791106 -62.939850 11.856038 7.715839 61.849556 0.589154 -3.909927 -2.757898 -10.853724 -12.835394 -73.169693 -0.898876 6.754053 70.353851 -1.245958 4.083186 26.110186 27.355839 -0.121681 
36.566566 37.003780 95.634598 5.336448 3.039064 -15.549480 42.393826 -1.757717 0.595722 -17.484266 -4.732930 2.175076 -34.476753 -1.389105 8.957633 -5.899801 -17.690437 13.953060 0.868313 -4.843898 -0.009730 -78.324028 -35.530960 33.638626 -103.229286 0.409939 5.219807 -21.578363 37.128666 -13.422754 13.641997 -3.508163 -0.009472 96.134903 72.187164 3.534502 136.400360 1.724593 -18.942047 46.708439 -7.896769 -8.311202 -63.132908 11.659751 7.293023 61.928246 0.601273 -3.887091 -2.758826 -10.544034 -12.824827 -73.175568 -1.095199 6.711420 70.178474 -1.217116 4.095791 26.399136 28.005928 -0.552238 
36.630722 36.990807 95.628754 5.450023 2.927272 -15.469451 42.305428 -1.620985 0.664073 -17.518223 -4.362132 2.163833 -34.495171 -0.945288 8.985559 -5.843504 -17.891140 14.205087 0.848807 -4.697411 -0.009732 -78.515610 -35.467758 33.619102 -103.195374 0.417194 5.255038 -21.617981 37.234024 -13.487947 13.622491 -3.361676 -0.009475 96.096756 72.264771 3.538890 136.247528 1.709874 -18.639532 46.711575 -7.431827 -7.833442 -63.365612 11.454232 6.881948 61.976681 0.601201 -3.898880 -2.633412 -10.280891 -12.784987 -73.218422 -1.328932 6.672095 69.983757 -1.207380 4.085034 26.763121 28.739687 -1.066358 
